<?xml version="1.0" encoding="utf-8"?>
<!-- Generated by IcoMoon.io -->
<!DOCTYPE svg PUBLIC "-//W3C//DTD SVG 1.1//EN" "http://www.w3.org/Graphics/SVG/1.1/DTD/svg11.dtd">
<svg version="1.1" xmlns="http://www.w3.org/2000/svg" xmlns:xlink="http://www.w3.org/1999/xlink" width="695" height="32" viewBox="0 0 695 32">
<g transform="translate(0 0)">
	<path d="M28.221 5.527c0.252 0.060 0.391 0.28 0.545 0.475 0.426 0.536 0.836 1.085 1.189 1.673 0.564 0.94 1.052 1.915 1.428 2.948 0.258 0.71 0.472 1.431 0.628 2.17 0.059 0.28 0.092 0.566 0.135 0.85 0.036 0.243 0.072 0.486 0.102 0.73 0.020 0.165 0.039 0.33 0.045 0.496 0.018 0.493 0.042 0.986 0.040 1.479-0.002 0.382-0.023 0.765-0.063 1.145-0.076 0.73-0.187 1.455-0.356 2.17-0.201 0.847-0.459 1.676-0.801 2.477-0.162 0.38-0.334 0.755-0.504 1.132-0.047 0.104-0.105 0.199-0.228 0.224-0.012 0.235-0.149 0.411-0.26 0.596-0.32 0.536-0.686 1.038-1.072 1.529-0.468 0.595-0.963 1.163-1.517 1.677-0.345 0.32-0.713 0.616-1.068 0.927-0.581 0.508-1.238 0.908-1.898 1.3-1.091 0.649-2.248 1.154-3.458 1.538-0.662 0.21-1.335 0.373-2.020 0.485-0.319 0.052-0.643 0.075-0.965 0.112-0.642 0.074-1.286 0.102-1.932 0.082-0.403-0.012-0.806-0.047-1.207-0.084-0.339-0.032-0.678-0.077-1.015-0.127-0.624-0.093-1.236-0.244-1.841-0.426-0.884-0.266-1.742-0.598-2.573-1.003-0.905-0.441-1.738-0.995-2.555-1.579-0.798-0.57-1.493-1.251-2.158-1.963-0.743-0.796-1.386-1.673-1.966-2.595-0.148-0.235-0.273-0.482-0.344-0.754-0.013-0.051-0.077-0.086-0.103-0.136-0.103-0.204-0.208-0.408-0.298-0.618-0.476-1.106-0.824-2.255-1.084-3.429-0.072-0.327-0.112-0.662-0.152-0.995-0.051-0.423-0.099-0.846-0.124-1.271-0.021-0.351-0.011-0.704-0.004-1.056 0.008-0.389 0.015-0.779 0.044-1.168 0.078-1.030 0.283-2.035 0.584-3.024 0.295-0.971 0.679-1.903 1.144-2.801 0.406-0.783 0.868-1.533 1.407-2.233 0.138-0.179 0.283-0.352 0.435-0.519 0.062-0.068 0.151-0.112 0.226-0.168 0.022-0.016 0.054-0.032 0.059-0.053 0.053-0.246 0.229-0.411 0.392-0.578 0.65-0.667 1.372-1.25 2.124-1.798 0.824-0.601 1.691-1.127 2.614-1.56 0.933-0.437 1.897-0.791 2.901-1.026 0.495-0.116 0.994-0.215 1.496-0.299 0.375-0.063 0.754-0.112 1.133-0.13 0.659-0.031 1.32-0.047 1.98-0.040 0.369 0.003 0.74 0.050 1.107 0.102 0.507 0.072 1.014 0.155 1.516 0.257 0.938 0.191 1.843 0.495 2.726 0.863 0.746 0.311 1.482 0.644 2.152 1.099 0.681 0.463 1.356 0.934 2.010 1.433 0.399 0.304 0.755 0.665 1.124 1.007 0.084 0.078 0.149 0.179 0.214 0.276 0.031 0.046 0.040 0.107 0.067 0.183zM8.481 13.972c0.049 0 0.085 0.005 0.119-0.001 0.257-0.048 0.514-0.098 0.771-0.147 0.49-0.094 0.981-0.182 1.47-0.282 0.557-0.114 1.114-0.229 1.667-0.361 0.437-0.105 0.866-0.238 1.3-0.354 0.106-0.028 0.161-0.084 0.186-0.194 0.091-0.394 0.337-0.655 0.704-0.816 0.515-0.226 1.062-0.308 1.614-0.332 0.347-0.015 0.697 0.031 1.045 0.058 0.402 0.031 0.786 0.143 1.14 0.326 0.313 0.162 0.498 0.441 0.572 0.79 0.006 0.027 0.022 0.068 0.041 0.074 0.338 0.096 0.676 0.197 1.017 0.279 0.443 0.106 0.891 0.196 1.336 0.295 0.161 0.036 0.319 0.082 0.481 0.112 0.187 0.034 0.377 0.052 0.565 0.082 0.311 0.049 0.62 0.103 0.931 0.154 0.244 0.041 0.489 0.082 0.734 0.121 0.122 0.020 0.245 0.037 0.376 0.056 0-0.069-0-0.118 0-0.168 0.001-0.131 0.008-0.134 0.139-0.139 0.165-0.006 0.33-0.019 0.506-0.029-0.017-0.136-0.019-0.271-0.052-0.398-0.136-0.518-0.267-1.038-0.426-1.549-0.183-0.59-0.445-1.149-0.724-1.7-0.067-0.132-0.139-0.248-0.045-0.411 0.082-0.143 0.176-0.25 0.329-0.307 0.078-0.029 0.154-0.063 0.231-0.097 0.176-0.078 0.354-0.088 0.503 0.040 0.163 0.14 0.319 0.292 0.456 0.456 0.262 0.312 0.523 0.627 0.759 0.959 0.474 0.666 0.87 1.378 1.175 2.138 0.025 0.062 0.057 0.088 0.124 0.088 0.127 0.001 0.254 0.014 0.38 0.017 0.032 0.001 0.076-0.006 0.095-0.027 0.11-0.127 0.235-0.24 0.204-0.444-0.016-0.104 0.002-0.232 0.118-0.307 0.017-0.011 0.023-0.073 0.008-0.091-0.092-0.115-0.063-0.248-0.069-0.377-0.003-0.063 0.001-0.144-0.035-0.183-0.090-0.097-0.096-0.204-0.096-0.323 0-0.089-0.032-0.165-0.096-0.24-0.065-0.076-0.092-0.183-0.136-0.277-0.043-0.092-0.083-0.185-0.129-0.276-0.039-0.077-0.091-0.148-0.125-0.227-0.042-0.096-0.071-0.19-0.181-0.242-0.112-0.052-0.199-0.144-0.236-0.269-0.027-0.088-0.088-0.144-0.162-0.195-0.081-0.055-0.16-0.115-0.229-0.184-0.075-0.075-0.143-0.143-0.259-0.163-0.095-0.017-0.191-0.070-0.271-0.129-0.104-0.076-0.2-0.131-0.34-0.125-0.141 0.005-0.258-0.073-0.338-0.202-0.029-0.046-0.081-0.086-0.131-0.109-0.191-0.089-0.315-0.226-0.35-0.439-0.007-0.041-0.025-0.087-0.053-0.118-0.134-0.151-0.252-0.309-0.289-0.515-0.004-0.023-0.025-0.048-0.045-0.061-0.17-0.112-0.272-0.267-0.32-0.463-0.013-0.052-0.053-0.097-0.082-0.144-0.078-0.128-0.163-0.251-0.232-0.384-0.038-0.073-0.070-0.135-0.151-0.174-0.095-0.047-0.165-0.122-0.197-0.235-0.045-0.158-0.163-0.264-0.311-0.321-0.123-0.048-0.219-0.115-0.286-0.228-0.025-0.043-0.064-0.064-0.118-0.084-0.126-0.045-0.24-0.122-0.359-0.185-0.055-0.029-0.11-0.057-0.164-0.086-0.107-0.055-0.214-0.111-0.322-0.165-0.063-0.032-0.124-0.070-0.191-0.089-0.135-0.038-0.268-0.068-0.356-0.197-0.024-0.035-0.089-0.045-0.137-0.060-0.116-0.035-0.259-0.034-0.344-0.105-0.118-0.097-0.235-0.104-0.369-0.114-0.079-0.006-0.176-0.036-0.225-0.091-0.056-0.064-0.109-0.068-0.18-0.078-0.125-0.017-0.268 0.005-0.361-0.111-0.061-0.076-0.12-0.080-0.209-0.044-0.146 0.060-0.288 0.029-0.368-0.089-0.060-0.089-0.127-0.082-0.208-0.062-0.108 0.026-0.214 0.014-0.298-0.058-0.061-0.052-0.116-0.063-0.19-0.037-0.127 0.045-0.259 0.049-0.361-0.047-0.057-0.054-0.11-0.056-0.166-0.036-0.186 0.066-0.35 0.047-0.48-0.114-0.164 0.084-0.329 0.144-0.486 0.017-0.066-0.053-0.11-0.045-0.175-0.017-0.153 0.068-0.303 0.076-0.448-0.031-0.020-0.015-0.068-0.008-0.096 0.005-0.137 0.065-0.27 0.145-0.418 0.029-0.055-0.044-0.097-0.033-0.155 0.005-0.124 0.082-0.267 0.13-0.404 0.044-0.074-0.047-0.125-0.041-0.187-0-0.121 0.081-0.251 0.111-0.385 0.043-0.082-0.041-0.15-0.020-0.215 0.023-0.133 0.089-0.272 0.095-0.422 0.054-0.038-0.010-0.095 0.002-0.127 0.026-0.127 0.094-0.264 0.147-0.418 0.1-0.076-0.023-0.119-0.007-0.178 0.040-0.108 0.086-0.231 0.183-0.377 0.107-0.077-0.040-0.11-0.025-0.157 0.027-0.119 0.129-0.261 0.176-0.434 0.121-0.029-0.009-0.081-0.008-0.094 0.009-0.107 0.143-0.255 0.171-0.418 0.171-0.036-0-0.088 0.006-0.105 0.029-0.116 0.155-0.264 0.198-0.449 0.165-0.035-0.006-0.079 0.033-0.117 0.056-0.098 0.057-0.187 0.138-0.292 0.17-0.122 0.038-0.237 0.057-0.344 0.148-0.095 0.080-0.237 0.106-0.357 0.157-0.028 0.012-0.062 0.023-0.078 0.046-0.093 0.137-0.234 0.189-0.383 0.233-0.064 0.019-0.134 0.049-0.179 0.096-0.11 0.114-0.232 0.198-0.384 0.244-0.040 0.012-0.075 0.047-0.108 0.076-0.097 0.085-0.184 0.183-0.289 0.256-0.090 0.063-0.154 0.133-0.159 0.242-0.012 0.217-0.116 0.375-0.292 0.496-0.039 0.027-0.080 0.074-0.088 0.117-0.031 0.175-0.118 0.311-0.245 0.43-0.040 0.037-0.066 0.098-0.079 0.152-0.045 0.186-0.089 0.368-0.25 0.498-0.033 0.026-0.043 0.091-0.048 0.139-0.014 0.141-0.056 0.272-0.194 0.326-0.097 0.038-0.14 0.101-0.18 0.184-0.075 0.155-0.183 0.266-0.373 0.262-0.028-0.001-0.062 0.028-0.085 0.052-0.121 0.121-0.262 0.197-0.437 0.203-0.025 0.001-0.057 0.013-0.072 0.032-0.122 0.152-0.279 0.255-0.449 0.343-0.033 0.017-0.063 0.043-0.091 0.068-0.128 0.114-0.256 0.228-0.381 0.346-0.028 0.026-0.042 0.068-0.063 0.102-0.064 0.103-0.114 0.221-0.198 0.305-0.057 0.057-0.079 0.114-0.105 0.182-0.043 0.112-0.078 0.252-0.163 0.318-0.116 0.089-0.141 0.18-0.135 0.309 0.006 0.135-0.033 0.264-0.149 0.343-0.072 0.049-0.093 0.122-0.078 0.179 0.040 0.151-0.020 0.275-0.065 0.407-0.014 0.040-0.008 0.095 0.008 0.135 0.051 0.132 0.102 0.26 0.045 0.406-0.012 0.031 0.014 0.082 0.031 0.12 0.046 0.102 0.114 0.197 0.139 0.303 0.017 0.071 0.039 0.107 0.1 0.139 0.102 0.055 0.196 0.121 0.234 0.243 0.008 0.027 0.039 0.046 0.059 0.069 0.021-0.024 0.050-0.044 0.062-0.072 0.13-0.306 0.253-0.615 0.385-0.92 0.261-0.602 0.562-1.183 0.949-1.713 0.309-0.423 0.642-0.831 0.979-1.233 0.186-0.222 0.376-0.324 0.624-0.221 0.11 0.046 0.223 0.082 0.333 0.126 0.071 0.029 0.147 0.054 0.205 0.1 0.164 0.131 0.197 0.345 0.098 0.556-0.145 0.311-0.3 0.617-0.433 0.933-0.374 0.884-0.607 1.809-0.773 2.757 0.179 0.009 0.355 0.023 0.531 0.027 0.202 0.005 0.252 0.064 0.207 0.263-0.003 0.013-0.009 0.026-0.019 0.057zM20.538 27.733c0.148-0.066 0.282-0.135 0.448-0.090 0.050 0.014 0.13-0.017 0.173-0.054 0.109-0.094 0.225-0.112 0.36-0.084 0.028 0.006 0.065-0.004 0.090-0.020 0.125-0.078 0.246-0.164 0.405-0.159 0.023 0.001 0.047-0.025 0.071-0.038 0.127-0.064 0.249-0.14 0.382-0.185 0.065-0.022 0.115-0.040 0.159-0.096 0.096-0.12 0.204-0.226 0.378-0.215 0.017 0.001 0.041-0.023 0.054-0.041 0.102-0.145 0.245-0.215 0.418-0.235 0.031-0.004 0.072-0.023 0.086-0.048 0.089-0.164 0.237-0.24 0.405-0.293 0.034-0.011 0.080-0.032 0.091-0.060 0.069-0.178 0.219-0.246 0.381-0.303 0.033-0.011 0.071-0.039 0.084-0.069 0.063-0.149 0.183-0.221 0.327-0.271 0.040-0.014 0.077-0.049 0.105-0.082 0.073-0.086 0.124-0.214 0.216-0.256 0.129-0.059 0.21-0.141 0.284-0.253 0.123-0.186 0.381-0.229 0.473-0.465 0.057-0.147 0.239-0.209 0.321-0.364 0.090-0.17 0.228-0.315 0.351-0.466 0.092-0.113 0.188-0.218 0.196-0.379 0.003-0.058 0.048-0.135 0.097-0.166 0.18-0.114 0.273-0.297 0.388-0.46 0.193-0.276 0.286-0.612 0.512-0.87 0.007-0.008 0.014-0.016 0.018-0.026 0.052-0.118 0.105-0.236 0.154-0.355 0.026-0.064 0.040-0.132 0.066-0.196 0.046-0.115 0.098-0.229 0.145-0.343 0.008-0.019 0.010-0.042 0.008-0.063-0.015-0.139-0.032-0.278-0.048-0.417-0.001-0.011 0.002-0.026-0.004-0.031-0.134-0.124-0.171-0.348-0.416-0.359-0.149-0.007-0.143-0.027-0.202 0.11-0.109 0.257-0.216 0.516-0.34 0.767-0.157 0.318-0.482 0.411-0.794 0.241-0.129-0.070-0.262-0.134-0.385-0.213-0.261-0.169-0.532-0.328-0.772-0.523-0.328-0.267-0.449-0.638-0.439-1.058 0.008-0.308-0.16-0.527-0.453-0.588-0.113-0.023-0.238-0.027-0.35-0.005-0.166 0.032-0.326 0.096-0.49 0.144-0.819 0.242-1.639 0.483-2.458 0.726-0.319 0.095-0.631 0.225-0.974 0.187-0.034-0.004-0.073-0.043-0.098-0.034-0.054 0.020-0.104 0.056-0.148 0.095-0.117 0.103-0.235 0.205-0.341 0.318-0.158 0.168-0.319 0.337-0.453 0.523-0.2 0.277-0.206 0.613-0.225 0.938-0.018 0.308-0.015 0.617-0.024 0.925-0.013 0.454-0.029 0.908-0.042 1.361-0.015 0.518-0.028 1.036-0.043 1.554-0.002 0.076-0.011 0.15 0.094 0.167 0.018 0.003 0.036 0.030 0.048 0.049 0.105 0.174 0.207 0.349 0.312 0.523 0.066 0.11 0.115 0.235 0.072 0.352-0.041 0.113 0.017 0.193 0.050 0.272 0.053 0.124 0.136 0.239 0.222 0.345 0.112 0.139 0.168 0.334 0.376 0.383 0.033 0.008 0.055 0.056 0.089 0.072 0.060 0.030 0.127 0.075 0.187 0.069 0.152-0.015 0.281 0.024 0.405 0.111zM5.509 20.080c-0.099 0.088-0.184 0.184-0.287 0.252-0.093 0.060-0.084 0.134-0.081 0.219 0.004 0.119 0.002 0.237 0.002 0.356 0 0.075-0.030 0.175 0.006 0.222 0.125 0.161 0.167 0.336 0.161 0.532-0.001 0.024 0.012 0.061 0.030 0.072 0.135 0.079 0.161 0.218 0.205 0.351 0.022 0.067 0.055 0.134 0.098 0.189 0.098 0.125 0.199 0.243 0.203 0.415 0.001 0.030 0.041 0.072 0.073 0.086 0.128 0.055 0.199 0.156 0.23 0.283 0.022 0.087 0.074 0.133 0.145 0.178 0.14 0.088 0.267 0.189 0.252 0.382-0.001 0.015 0.006 0.039 0.017 0.047 0.177 0.111 0.168 0.343 0.32 0.478 0.1 0.089 0.143 0.234 0.279 0.302 0.053 0.026 0.080 0.104 0.121 0.156 0.023 0.030 0.044 0.066 0.075 0.082 0.162 0.085 0.274 0.22 0.38 0.362 0.018 0.024 0.040 0.056 0.066 0.063 0.174 0.047 0.277 0.172 0.367 0.316 0.020 0.031 0.056 0.063 0.091 0.072 0.204 0.052 0.34 0.175 0.416 0.37 0.012 0.031 0.047 0.070 0.076 0.075 0.173 0.029 0.291 0.128 0.394 0.263 0.040 0.052 0.104 0.114 0.16 0.118 0.183 0.013 0.295 0.122 0.403 0.246 0.021 0.024 0.051 0.057 0.078 0.058 0.189 0.008 0.311 0.114 0.412 0.261 0.020 0.029 0.063 0.052 0.099 0.058 0.168 0.027 0.323 0.066 0.407 0.239 0.010 0.020 0.056 0.032 0.086 0.032 0.148 0.001 0.299 0.014 0.389 0.143 0.055 0.078 0.106 0.088 0.185 0.070 0.138-0.032 0.272 0.027 0.356 0.14 0.022 0.030 0.076 0.064 0.105 0.057 0.157-0.038 0.288 0.007 0.415 0.095 0.026 0.018 0.070 0.024 0.101 0.016 0.134-0.034 0.263-0.023 0.393 0.023 0.028 0.010 0.070 0.011 0.095-0.003 0.128-0.071 0.257-0.079 0.394-0.030 0.023 0.008 0.060-0.009 0.084-0.025 0.084-0.054 0.168-0.11 0.247-0.172 0.037-0.029 0.069-0.070 0.088-0.112 0.038-0.085 0.060-0.177 0.097-0.263 0.037-0.085 0.095-0.163 0.126-0.25 0.033-0.094 0.042-0.196 0.065-0.293 0.069-0.286 0.226-0.533 0.434-0.723 0.192-0.175 0.247-0.362 0.218-0.598-0.006-0.046-0.017-0.091-0.019-0.136-0.016-0.39-0.031-0.78-0.045-1.17-0.008-0.223-0.011-0.447-0.023-0.67-0.033-0.669-0.068-1.337-0.106-2.006-0.012-0.214-0.078-0.413-0.175-0.606-0.168-0.336-0.49-0.52-0.739-0.776-0.113-0.117-0.247-0.132-0.396-0.128-0.215 0.006-0.431 0.023-0.64-0.063-0.145-0.059-0.298-0.103-0.449-0.145-0.833-0.23-1.665-0.46-2.5-0.682-0.205-0.055-0.407-0.129-0.63-0.115-0.243 0.016-0.454 0.157-0.505 0.396-0.033 0.153-0.021 0.316-0.047 0.472-0.064 0.385-0.238 0.717-0.559 0.944-0.316 0.224-0.653 0.419-0.982 0.625-0.294 0.183-0.587 0.134-0.768-0.109-0.086-0.116-0.143-0.256-0.205-0.388-0.102-0.217-0.197-0.437-0.292-0.65zM18.935 16.574c-0.012-0.141-0.020-0.282-0.035-0.423-0.049-0.474-0.243-0.889-0.564-1.23-0.596-0.632-1.332-0.874-2.195-0.736-0.625 0.1-1.106 0.429-1.485 0.918-0.416 0.536-0.519 1.148-0.411 1.807 0.137 0.833 0.637 1.38 1.369 1.743 0.304 0.151 0.636 0.179 0.971 0.195 0.72 0.034 1.32-0.214 1.796-0.751 0.383-0.432 0.565-0.942 0.555-1.521zM17.068 13.366c-0.002-0.307-0.23-0.531-0.539-0.528-0.303 0.003-0.535 0.239-0.533 0.542 0.002 0.288 0.248 0.53 0.54 0.53 0.3-0 0.534-0.24 0.532-0.544zM19.902 18.114c0.015-0.323-0.234-0.549-0.53-0.551-0.318-0.002-0.538 0.25-0.538 0.538 0 0.287 0.211 0.538 0.537 0.538 0.286 0 0.532-0.206 0.531-0.525zM19.843 14.91c0.002-0.295-0.226-0.524-0.513-0.533-0.286-0.009-0.549 0.21-0.559 0.532-0.009 0.289 0.24 0.536 0.532 0.537 0.303 0.001 0.537-0.233 0.539-0.536zM13.825 15.494c0.308-0 0.526-0.224 0.532-0.534 0.005-0.24-0.179-0.523-0.533-0.534-0.293-0.009-0.538 0.247-0.537 0.542 0.002 0.294 0.239 0.526 0.538 0.525zM16.632 19.178c-0.304-0.001-0.538 0.228-0.541 0.53-0.003 0.295 0.24 0.538 0.537 0.538 0.296 0 0.53-0.235 0.531-0.532 0-0.297-0.234-0.536-0.527-0.536zM13.303 18.132c-0.001 0.296 0.227 0.527 0.513 0.537 0.283 0.010 0.545-0.202 0.55-0.531 0.005-0.337-0.276-0.542-0.534-0.54-0.296 0.002-0.527 0.233-0.528 0.533zM7.208 15.311c-0 0.118 0.069 0.184 0.213 0.131 0.219-0.080 0.424-0.193 0.565-0.385 0.096-0.131 0.175-0.277 0.182-0.448 0.004-0.093-0.054-0.143-0.134-0.138-0.213 0.012-0.424 0.036-0.636 0.059-0.083 0.009-0.138 0.060-0.145 0.142-0.018 0.196-0.028 0.392-0.045 0.641zM25.183 14.336c-0.27 0-0.328 0.089-0.24 0.294 0.029 0.066 0.061 0.133 0.099 0.193 0.171 0.267 0.417 0.416 0.731 0.452 0.082 0.009 0.108-0.029 0.102-0.105-0.016-0.214-0.027-0.429-0.047-0.642-0.007-0.074-0.048-0.138-0.13-0.147-0.188-0.020-0.378-0.033-0.516-0.045zM7.101 16.79c-0.022 0.218 0.075 0.22 0.234 0.168 0.374-0.121 0.614-0.375 0.72-0.754 0.028-0.099-0.042-0.2-0.136-0.193-0.21 0.015-0.42 0.033-0.63 0.054-0.084 0.008-0.135 0.065-0.143 0.146-0.018 0.192-0.030 0.385-0.045 0.578zM7.945 17.721c-0.010-0.122-0.059-0.171-0.155-0.161-0.165 0.017-0.33 0.033-0.495 0.038-0.23 0.007-0.267 0.050-0.28 0.278-0.009 0.151-0.020 0.302-0.040 0.452-0.021 0.158 0.042 0.216 0.201 0.176 0.347-0.086 0.568-0.315 0.714-0.628 0.023-0.050 0.037-0.104 0.055-0.156zM26.166 18.359c-0.022-0.282-0.038-0.539-0.067-0.794-0.004-0.036-0.062-0.088-0.101-0.094-0.217-0.030-0.435-0.057-0.653-0.066-0.115-0.005-0.174 0.094-0.139 0.204 0.024 0.076 0.054 0.151 0.093 0.22 0.183 0.324 0.464 0.493 0.867 0.529zM25.289 15.869c-0.224-0.024-0.273 0.106-0.201 0.292 0.129 0.335 0.371 0.542 0.717 0.63 0.149 0.038 0.206-0.008 0.194-0.162-0.014-0.169-0.029-0.339-0.046-0.508-0.016-0.157-0.039-0.184-0.198-0.206-0.154-0.021-0.31-0.032-0.465-0.047z" fill="#000000" />
</g>
<g transform="translate(49 0)">
	<path d="M47.329 5.72c0.143-0.037 0.284-0.075 0.425-0.11 0.375-0.093 0.584 0.008 0.804 0.315 0.386 0.538 0.457 1.136 0.362 1.763-0.055 0.364 0.030 0.691 0.145 1.027 0.473 1.379 0.864 2.779 0.966 4.241 0.082 1.165 0.207 2.334 0.185 3.499-0.050 2.599-0.719 5.072-1.696 7.469-0.102 0.25-0.185 0.513-0.325 0.739-0.344 0.553-0.361 1.144-0.294 1.763 0.019 0.171-0.026 0.37-0.102 0.528-0.59 1.24-1.591 2.029-2.851 2.504-1.561 0.589-3.058 0.321-4.509-0.394-0.32-0.157-0.634-0.325-0.948-0.493-0.513-0.273-0.799-0.688-0.771-1.283 0.008-0.161-0.038-0.237-0.195-0.304-1.902-0.802-3.854-1.439-5.885-1.821-0.238-0.045-0.474-0.095-0.712-0.139-0.050-0.009-0.108-0.013-0.153 0.004-0.954 0.362-1.942 0.226-2.925 0.216-1.527-0.016-3.054 0.019-4.58 0.010-0.59-0.003-1.192-0.004-1.766-0.12-0.424-0.085-0.818-0.098-1.231-0.016-2.062 0.408-4.064 1.011-5.997 1.84-0.128 0.055-0.183 0.112-0.168 0.268 0.051 0.54-0.177 0.982-0.639 1.228-0.902 0.48-1.796 0.981-2.819 1.199-2.172 0.465-4.591-0.614-5.659-2.559-0.133-0.243-0.179-0.485-0.141-0.774 0.063-0.492 0.057-0.962-0.196-1.453-0.941-1.821-1.487-3.778-1.884-5.785-0.273-1.381-0.357-2.768-0.301-4.166 0.087-2.176 0.377-4.319 1.163-6.367 0.144-0.376 0.194-0.749 0.115-1.123-0.137-0.646 0.107-1.181 0.425-1.699 0.176-0.288 0.444-0.367 0.827-0.239 0.251 0.084 0.391 0.071 0.522-0.201 0.393-0.817 1.008-1.405 1.92-1.59 0.759-0.154 1.527-0.266 2.295-0.374 1.277-0.179 2.554-0.359 3.835-0.504 1.325-0.15 2.652-0.308 3.982-0.375 2.606-0.133 5.214-0.261 7.822-0.285 2.206-0.021 4.417 0.058 6.62 0.182 3.23 0.182 6.448 0.516 9.645 1.033 0.84 0.136 1.683 0.266 2.517 0.433 0.749 0.15 1.343 0.555 1.75 1.214 0.141 0.229 0.279 0.46 0.422 0.698zM15.297 11.644c0.277-0.22 0.56-0.424 0.819-0.654 0.565-0.502 1.042-1.078 1.373-1.761 0.113-0.234 0.139-0.462-0.044-0.704-0.582-0.774-1.364-1.088-2.305-1.027-0.495 0.032-0.987 0.105-1.478 0.177-0.888 0.131-1.782 0.235-2.656 0.428-0.573 0.126-1.206 0.272-1.271 1.068-0.012 0.145-0.185 0.27-0.24 0.42-0.203 0.553-0.382 1.115-0.584 1.668-0.067 0.184-0.050 0.341 0.060 0.491 0.402 0.548 0.919 0.924 1.621 0.895 0.463-0.019 0.927-0.113 1.381-0.214 0.943-0.21 1.867-0.485 2.705-0.989 0.34-0.205 0.422-0.18 0.619 0.203zM38.477 11.685c0.178-0.34 0.283-0.396 0.529-0.245 1.093 0.673 2.322 0.968 3.551 1.232 0.817 0.176 1.561-0.022 2.096-0.736 0.136-0.181 0.183-0.362 0.096-0.584-0.091-0.233-0.18-0.473-0.226-0.718-0.117-0.633-0.593-1.129-0.66-1.779-0.004-0.043-0.055-0.089-0.094-0.119-0.435-0.338-0.927-0.557-1.469-0.642-1.246-0.196-2.493-0.397-3.744-0.554-0.785-0.098-1.499 0.1-2.062 0.712-0.39 0.423-0.452 0.602-0.18 1.113 0.508 0.956 1.237 1.715 2.162 2.319zM11.387 17.589c-0.359 0.099-0.682 0.198-1.009 0.276-0.78 0.184-1.19 0.746-1.447 1.441-0.070 0.19-0.084 0.445-0.019 0.633 0.292 0.844 0.608 1.681 0.949 2.506 0.084 0.204 0.273 0.387 0.457 0.522 0.505 0.372 1.070 0.409 1.665 0.239 0.469-0.134 0.943-0.194 1.373 0.042 0.349-0.186 0.67-0.379 1.009-0.534 1.214-0.557 2.114-1.436 2.678-2.64 0.184-0.392 0.268-0.831 0.398-1.249-0.22-0.062-0.398-0.102-0.462-0.209-0.152-0.256-0.246-0.547-0.374-0.819-0.043-0.093-0.097-0.202-0.178-0.251-0.25-0.152-0.516-0.279-0.8-0.429-0.007 0.105-0.014 0.171-0.016 0.238-0.016 0.847-0.029 1.693-0.047 2.54-0.007 0.32-0.124 0.467-0.385 0.502-0.164 0.022-0.328 0.038-0.492 0.055-0.96 0.098-1.921 0.191-2.881 0.295-0.388 0.042-0.585-0.143-0.562-0.54 0.050-0.853 0.094-1.706 0.144-2.618zM38.046 17.112c-0.118 0.060-0.213 0.101-0.301 0.154-0.322 0.193-0.757 0.284-0.732 0.798 0.001 0.029-0.031 0.061-0.052 0.089-0.163 0.213-0.332 0.421-0.486 0.64-0.039 0.055-0.056 0.145-0.045 0.213 0.032 0.196 0.067 0.396 0.131 0.583 0.516 1.513 1.553 2.547 2.98 3.22 0.196 0.093 0.398 0.183 0.574 0.307 0.18 0.127 0.33 0.228 0.553 0.077 0.091-0.062 0.238-0.073 0.354-0.059 0.397 0.047 0.792 0.111 1.186 0.178 0.729 0.124 1.452-0.195 1.742-0.865 0.328-0.757 0.607-1.538 0.861-2.323 0.155-0.48 0.035-0.933-0.286-1.348-0.37-0.478-0.829-0.782-1.416-0.91-0.264-0.058-0.524-0.137-0.805-0.212 0.072 0.873 0.131 1.696 0.212 2.517 0.044 0.452-0.089 0.606-0.546 0.584-1.063-0.051-2.126-0.1-3.189-0.14-0.424-0.016-0.534-0.105-0.577-0.531-0.009-0.087-0.003-0.174-0.007-0.261-0.049-0.895-0.099-1.789-0.151-2.708zM15.288 15.896c0.101-0.016 0.221-0.033 0.341-0.053 1.191-0.197 2.008-1.529 1.248-2.653-0.559-0.826-1.731-1.12-2.665-0.521-0.542 0.348-0.871 0.865-0.827 1.497 0.079 1.117 0.92 1.652 1.902 1.729zM40.397 14.125c-0.026-0.119-0.049-0.274-0.095-0.422-0.372-1.182-1.817-1.671-2.892-0.981-0.692 0.444-0.992 1.29-0.715 2.009 0.337 0.874 1.344 1.377 2.267 1.132 0.9-0.239 1.385-0.923 1.435-1.739zM8.923 4.319c-0.758-0.014-1.492 0.662-1.466 1.408 0.030 0.856 0.633 1.453 1.46 1.451 0.846-0.002 1.416-0.629 1.457-1.408 0.039-0.751-0.665-1.437-1.451-1.451zM28.347 18.697c-0.084-0.866-0.672-1.435-1.48-1.42-0.871 0.016-1.437 0.626-1.432 1.423 0.006 0.857 0.624 1.433 1.461 1.419 0.881-0.015 1.373-0.619 1.451-1.422zM10.695 5.183c0.047 0.881 0.707 1.43 1.474 1.418 0.829-0.013 1.387-0.576 1.448-1.41 0.054-0.737-0.681-1.442-1.451-1.448-0.769-0.006-1.474 0.684-1.471 1.44zM18.858 13.221c0.766-0.068 1.442-0.512 1.457-1.415 0.014-0.799-0.569-1.431-1.439-1.442-0.825-0.010-1.455 0.579-1.456 1.425-0.001 0.812 0.567 1.341 1.439 1.432zM23.851 20.088c-0.871 0.061-1.459 0.631-1.454 1.443 0.005 0.826 0.599 1.407 1.438 1.416 0.82 0.008 1.455-0.569 1.455-1.425 0-0.808-0.576-1.356-1.439-1.433zM15.56 3.377c-0.857 0.076-1.448 0.623-1.441 1.431 0.008 0.861 0.644 1.433 1.455 1.427 0.829-0.007 1.436-0.58 1.442-1.414 0.007-0.834-0.613-1.377-1.456-1.444zM29.912 20.089c-0.853 0.085-1.435 0.606-1.439 1.432-0.004 0.853 0.632 1.432 1.454 1.425 0.833-0.007 1.435-0.584 1.439-1.414 0.004-0.831-0.608-1.37-1.454-1.443zM34.778 10.347c-0.87 0.089-1.438 0.639-1.433 1.436 0.005 0.871 0.646 1.434 1.459 1.418 0.879-0.017 1.432-0.613 1.433-1.418 0-0.848-0.637-1.369-1.459-1.436zM44.846 7.3c0.843-0.077 1.459-0.619 1.45-1.446-0.009-0.848-0.623-1.406-1.442-1.411-0.785-0.005-1.431 0.524-1.449 1.403-0.017 0.806 0.561 1.364 1.441 1.454zM39.818 4.826c-0.071-0.756-0.525-1.397-1.441-1.43-0.76-0.027-1.449 0.49-1.468 1.409-0.017 0.813 0.594 1.43 1.447 1.429 0.816-0.001 1.366-0.553 1.461-1.408zM41.555 6.724c0.882-0.089 1.462-0.67 1.44-1.455-0.024-0.889-0.677-1.412-1.451-1.401-0.886 0.013-1.462 0.645-1.44 1.438 0.026 0.9 0.679 1.343 1.451 1.419z" fill="#000000" />
</g>
<g transform="translate(119 0)">
	<path d="M36.985 2.66c0.005-0.615 0.369-0.772 0.757-0.866 1.096-0.267 2.212-0.305 3.328-0.176 0.427 0.049 0.848 0.192 1.259 0.331 0.25 0.085 0.43 0.27 0.412 0.578-0.004 0.062 0.031 0.14 0.074 0.188 0.342 0.384 0.736 0.731 1.027 1.15 1.134 1.633 1.829 3.47 2.4 5.358 0.802 2.654 1.295 5.375 1.752 8.104 0.283 1.687 0.591 3.371 0.831 5.065 0.199 1.41 0.26 2.832-0.105 4.232-0.564 2.166-2.473 3.843-4.681 3.984-1.992 0.127-3.618-0.658-4.597-2.425-0.547-0.986-0.89-2.091-1.271-3.162-0.394-1.107-0.721-2.239-1.082-3.358-0.254-0.786-0.656-1.262-1.322-1.571-0.189 0.178-0.374 0.37-0.578 0.54-1.868 1.561-4.543 1.36-6.148-0.471-0.17-0.194-0.338-0.267-0.59-0.265-1.956 0.009-3.912-0.002-5.867 0.014-0.175 0.001-0.398 0.106-0.515 0.238-1.763 1.987-4.715 2.058-6.551 0.128-0.206-0.217-0.349-0.218-0.582-0.072-0.602 0.379-0.919 0.944-1.126 1.599-0.48 1.514-0.931 3.039-1.474 4.531-0.3 0.824-0.659 1.664-1.172 2.365-1.888 2.581-5.67 2.576-7.795 0.054-0.862-1.023-1.287-2.201-1.364-3.531-0.102-1.776 0.197-3.508 0.51-5.241 0.44-2.435 0.84-4.878 1.32-7.306 0.472-2.384 1.11-4.73 2.198-6.916 0.451-0.907 1.043-1.746 1.596-2.6 0.117-0.181 0.343-0.29 0.512-0.441 0.064-0.058 0.153-0.139 0.153-0.21 0.002-0.339 0.216-0.527 0.483-0.618 0.433-0.147 0.879-0.283 1.331-0.344 1.029-0.138 2.060-0.113 3.078 0.117 0.651 0.147 0.791 0.303 0.866 0.966 0.477 0.073 0.974 0.214 1.472 0.215 6.475 0.016 12.95 0.017 19.425 0.004 0.67-0.001 1.339-0.12 2.038-0.188zM18.758 13.517c-1.539-0.012-2.791 1.188-2.813 2.697-0.021 1.481 1.252 2.749 2.766 2.754 1.533 0.005 2.806-1.219 2.813-2.707 0.007-1.505-1.229-2.732-2.766-2.744zM32.388 13.517c-1.539-0.012-2.791 1.19-2.812 2.699-0.020 1.482 1.253 2.749 2.767 2.753 1.534 0.004 2.806-1.221 2.812-2.708 0.006-1.506-1.23-2.731-2.767-2.743zM41.735 12.922c0.004-1.024-0.816-1.859-1.834-1.867-1.009-0.008-1.865 0.836-1.868 1.843-0.003 1.018 0.828 1.857 1.844 1.863 1.023 0.006 1.854-0.816 1.859-1.839zM44.862 9.681c-0.006-1.016-0.847-1.846-1.864-1.839-1.013 0.006-1.851 0.856-1.842 1.867 0.010 1.013 0.858 1.849 1.869 1.84 1.017-0.009 1.843-0.848 1.837-1.868zM41.65 6.505c0.013-1.016-0.814-1.864-1.829-1.875-1.019-0.011-1.864 0.812-1.877 1.827-0.013 1.015 0.814 1.864 1.83 1.878 1.012 0.014 1.863-0.817 1.876-1.831zM34.731 9.713c0.007 1.013 0.856 1.847 1.869 1.837 1.012-0.010 1.851-0.864 1.839-1.872-0.012-1.015-0.86-1.845-1.874-1.836-1.016 0.010-1.842 0.852-1.834 1.871zM16.281 9.934c-0.002 0-0.004 0-0.005 0 0-0.194 0.011-0.389-0.002-0.582-0.033-0.491-0.332-0.952-0.77-0.979-0.648-0.040-1.303 0.036-1.954 0.068-0.040 0.002-0.083 0.048-0.117 0.082-0.368 0.369-0.736 0.737-1.1 1.11-0.172 0.177-0.175 0.371-0.003 0.548 0.362 0.374 0.73 0.744 1.101 1.109 0.055 0.054 0.144 0.097 0.221 0.103 0.531 0.041 1.064 0.092 1.596 0.098 0.554 0.005 0.988-0.423 1.031-0.975 0.015-0.193 0.002-0.388 0.002-0.582zM9.726 6.565c0.032 0.494 0.053 0.918 0.091 1.341 0.010 0.113 0.049 0.245 0.121 0.326 0.328 0.373 0.673 0.731 1.012 1.094 0.211 0.226 0.419 0.206 0.622-0.012 0.331-0.354 0.665-0.705 0.988-1.067 0.067-0.075 0.117-0.189 0.126-0.289 0.044-0.531 0.094-1.063 0.101-1.596 0.008-0.634-0.441-1.071-1.069-1.082-0.23-0.004-0.461-0.001-0.691-0.001-0.967 0-1.337 0.387-1.3 1.285zM7.546 8.332c-0.884-0.15-1.351 0.437-1.369 1.018-0.012 0.375-0.018 0.752 0.002 1.126 0.034 0.622 0.477 1.035 1.096 1.017 0.496-0.014 0.991-0.057 1.486-0.098 0.089-0.007 0.194-0.047 0.256-0.108 0.373-0.363 0.739-0.733 1.101-1.107 0.157-0.162 0.179-0.351 0.018-0.519-0.377-0.393-0.76-0.78-1.152-1.159-0.060-0.058-0.175-0.071-0.267-0.080-0.374-0.034-0.748-0.059-1.17-0.090zM11.168 14.547c0.17 0 0.339 0.001 0.509-0 0.469-0.003 0.881-0.244 0.923-0.668 0.072-0.723-0.018-1.463-0.043-2.196-0.001-0.020-0.023-0.042-0.039-0.059-0.365-0.389-0.719-0.788-1.103-1.157-0.085-0.081-0.344-0.122-0.408-0.061-0.429 0.408-0.829 0.847-1.23 1.283-0.041 0.045-0.039 0.136-0.045 0.207-0.028 0.363-0.059 0.725-0.075 1.088-0.059 1.27 0.228 1.565 1.511 1.564zM16.666 4.888c0-0.181 0.005-0.363-0.001-0.544-0.013-0.406-0.258-0.656-0.652-0.671-0.412-0.016-0.708 0.231-0.726 0.639-0.017 0.386-0.018 0.774 0 1.16 0.018 0.382 0.317 0.627 0.711 0.618 0.395-0.009 0.653-0.26 0.667-0.658 0.006-0.181 0.001-0.363 0.001-0.544zM35.254 4.899c0-0.181 0.004-0.363-0.001-0.544-0.012-0.426-0.266-0.679-0.678-0.682-0.412-0.003-0.687 0.248-0.702 0.666-0.013 0.362-0.013 0.726-0.001 1.088 0.014 0.411 0.296 0.668 0.705 0.665 0.411-0.004 0.666-0.26 0.677-0.685 0.004-0.169 0.001-0.339 0-0.508z" fill="#000000" />
</g>
<g transform="translate(186 0)">
	<path d="M13.714 2.286q3.732 0 6.884 1.839t4.991 4.991 1.839 6.884-1.839 6.884-4.991 4.991-6.884 1.839-6.884-1.839-4.991-4.991-1.839-6.884 1.839-6.884 4.991-4.991 6.884-1.839zM18.607 11.589q-0.036 0.018-0.17 0.17t-0.241 0.17q0.036 0 0.080-0.089t0.089-0.196 0.063-0.125q0.107-0.125 0.393-0.268 0.25-0.107 0.929-0.214 0.607-0.143 0.911 0.196-0.036-0.036 0.17-0.232t0.259-0.214q0.054-0.036 0.268-0.080t0.268-0.134l0.036-0.393q-0.214 0.018-0.313-0.125t-0.116-0.375q0 0.036-0.107 0.143 0-0.125-0.080-0.143t-0.205 0.018-0.161 0.018q-0.179-0.054-0.268-0.134t-0.143-0.295-0.071-0.268q-0.036-0.089-0.17-0.188t-0.17-0.188q-0.018-0.036-0.045-0.098t-0.054-0.116-0.071-0.098-0.098-0.045-0.125 0.089-0.134 0.179-0.080 0.089q-0.054-0.036-0.107-0.027t-0.080 0.018-0.080 0.054-0.089 0.063q-0.054 0.036-0.152 0.054t-0.152 0.036q0.268-0.089-0.018-0.196-0.179-0.071-0.286-0.054 0.161-0.071 0.134-0.214t-0.152-0.25h0.089q-0.018-0.071-0.152-0.152t-0.313-0.152-0.232-0.107q-0.143-0.089-0.607-0.17t-0.589-0.009q-0.089 0.107-0.080 0.188t0.071 0.25 0.063 0.223q0.018 0.107-0.098 0.232t-0.116 0.214q0 0.125 0.25 0.277t0.179 0.384q-0.054 0.143-0.286 0.286t-0.286 0.214q-0.089 0.143-0.027 0.33t0.188 0.295q0.036 0.036 0.027 0.071t-0.063 0.080-0.098 0.071-0.116 0.063l-0.054 0.036q-0.196 0.089-0.366-0.107t-0.241-0.464q-0.125-0.446-0.286-0.536-0.411-0.143-0.518 0.018-0.089-0.232-0.732-0.464-0.446-0.161-1.036-0.071 0.107-0.018 0-0.268-0.125-0.268-0.339-0.214 0.054-0.107 0.071-0.313t0.018-0.241q0.054-0.232 0.214-0.411 0.018-0.018 0.125-0.152t0.17-0.241 0.009-0.107q0.625 0.071 0.893-0.196 0.089-0.089 0.205-0.304t0.188-0.304q0.161-0.107 0.25-0.098t0.259 0.098 0.259 0.089q0.25 0.018 0.277-0.196t-0.134-0.357q0.214 0.018 0.054-0.304-0.089-0.125-0.143-0.161-0.214-0.071-0.482 0.089-0.143 0.071 0.036 0.143-0.018-0.018-0.17 0.188t-0.295 0.313-0.286-0.089q-0.018-0.018-0.098-0.241t-0.17-0.241q-0.143 0-0.286 0.268 0.054-0.143-0.196-0.268t-0.429-0.143q0.339-0.214-0.143-0.482-0.125-0.071-0.366-0.089t-0.348 0.071q-0.089 0.125-0.098 0.205t0.089 0.143 0.188 0.098 0.205 0.071 0.152 0.054q0.25 0.179 0.143 0.25-0.036 0.018-0.152 0.063t-0.205 0.080-0.107 0.071q-0.054 0.071 0 0.25t-0.036 0.25q-0.089-0.089-0.161-0.313t-0.125-0.295q0.125 0.161-0.446 0.107l-0.179-0.018q-0.071 0-0.286 0.036t-0.366 0.018-0.241-0.143q-0.071-0.143 0-0.357 0.018-0.071 0.071-0.036-0.071-0.054-0.196-0.17t-0.179-0.152q-0.821 0.268-1.679 0.732 0.107 0.018 0.214-0.018 0.089-0.036 0.232-0.116t0.179-0.098q0.607-0.25 0.75-0.125l0.089-0.089q0.25 0.286 0.357 0.446-0.125-0.071-0.536-0.018-0.357 0.107-0.393 0.214 0.125 0.214 0.089 0.321-0.071-0.054-0.205-0.179t-0.259-0.196-0.268-0.089q-0.286 0-0.393 0.018-2.607 1.429-4.196 3.964 0.125 0.125 0.214 0.143 0.071 0.018 0.089 0.161t0.045 0.196 0.205-0.054q0.161 0.143 0.054 0.339 0.018-0.018 0.786 0.482 0.339 0.304 0.375 0.375 0.054 0.196-0.179 0.321-0.018-0.036-0.161-0.161t-0.161-0.071q-0.054 0.089 0.009 0.33t0.188 0.223q-0.125 0-0.17 0.286t-0.045 0.634-0.018 0.42l0.036 0.018q-0.054 0.214 0.098 0.616t0.384 0.348q-0.232 0.054 0.357 0.768 0.107 0.143 0.143 0.161 0.054 0.036 0.214 0.134t0.268 0.179 0.179 0.188q0.071 0.089 0.179 0.402t0.25 0.42q-0.036 0.107 0.17 0.357t0.188 0.411q-0.018 0-0.045 0.018t-0.045 0.018q0.054 0.125 0.277 0.25t0.277 0.232q0.018 0.054 0.036 0.179t0.054 0.196 0.143 0.036q0.036-0.357-0.429-1.107-0.268-0.446-0.304-0.518-0.054-0.089-0.098-0.277t-0.080-0.259q0.036 0 0.107 0.027t0.152 0.063 0.134 0.071 0.036 0.054q-0.054 0.125 0.036 0.313t0.214 0.33 0.304 0.339 0.214 0.232q0.107 0.107 0.25 0.348t0 0.241q0.161 0 0.357 0.179t0.304 0.357q0.089 0.143 0.143 0.464t0.089 0.429q0.036 0.125 0.152 0.241t0.223 0.17l0.286 0.143t0.232 0.125q0.089 0.036 0.33 0.188t0.384 0.205q0.179 0.071 0.286 0.071t0.259-0.045 0.241-0.063q0.268-0.036 0.518 0.268t0.375 0.375q0.643 0.339 0.982 0.196-0.036 0.018 0.009 0.134t0.143 0.277 0.161 0.259 0.098 0.152q0.089 0.107 0.321 0.268t0.321 0.268q0.107-0.071 0.125-0.161-0.054 0.143 0.125 0.357t0.321 0.179q0.25-0.054 0.25-0.571-0.554 0.268-0.875-0.321 0-0.018-0.045-0.098t-0.071-0.152-0.045-0.152 0-0.134 0.089-0.054q0.161 0 0.179-0.063t-0.036-0.223-0.071-0.232q-0.018-0.143-0.196-0.357t-0.214-0.268q-0.089 0.161-0.286 0.143t-0.286-0.161q0 0.018-0.027 0.098t-0.027 0.116q-0.232 0-0.268-0.018 0.018-0.054 0.045-0.313t0.063-0.402q0.018-0.071 0.098-0.214t0.134-0.259 0.071-0.223-0.080-0.17-0.313-0.045q-0.339 0.018-0.464 0.357-0.018 0.054-0.054 0.188t-0.089 0.205-0.161 0.125q-0.125 0.054-0.429 0.036t-0.429-0.089q-0.232-0.143-0.402-0.518t-0.17-0.661q0-0.179 0.045-0.473t0.054-0.446-0.098-0.438q0.054-0.036 0.161-0.17t0.179-0.188q0.036-0.018 0.080-0.027t0.080 0 0.071-0.027 0.054-0.107q-0.018-0.018-0.071-0.054-0.054-0.054-0.071-0.054 0.125 0.054 0.509-0.027t0.491 0.027q0.268 0.196 0.393-0.036 0-0.018-0.045-0.17t-0.009-0.241q0.089 0.482 0.518 0.161 0.054 0.054 0.277 0.089t0.313 0.089q0.054 0.036 0.125 0.098t0.098 0.080 0.089-0.009 0.152-0.116q0.179 0.25 0.214 0.429 0.196 0.714 0.339 0.786 0.125 0.054 0.196 0.036t0.080-0.17 0-0.25-0.027-0.223l-0.018-0.143v-0.321l-0.018-0.143q-0.268-0.054-0.33-0.214t0.027-0.33 0.268-0.33q0.018-0.018 0.143-0.063t0.277-0.116 0.223-0.143q0.375-0.339 0.268-0.625 0.125 0 0.196-0.161-0.018 0-0.089-0.054t-0.134-0.089-0.080-0.036q0.161-0.089 0.036-0.286 0.089-0.054 0.134-0.196t0.134-0.179q0.161 0.214 0.375 0.036 0.125-0.143 0.018-0.286 0.089-0.125 0.366-0.188t0.33-0.17q0.125 0.036 0.143-0.036t0.018-0.214 0.054-0.214q0.071-0.089 0.268-0.161t0.232-0.089l0.304-0.196q0.054-0.071 0-0.071 0.321 0.036 0.554-0.196 0.179-0.196-0.107-0.357 0.054-0.107-0.054-0.17t-0.268-0.098q0.054-0.018 0.205-0.009t0.188-0.027q0.268-0.179-0.125-0.286-0.304-0.089-0.768 0.214zM15.696 27.25q3.679-0.643 6.268-3.375-0.054-0.054-0.223-0.080t-0.223-0.063q-0.321-0.125-0.429-0.143 0.018-0.125-0.045-0.232t-0.143-0.161-0.223-0.143-0.196-0.125q-0.036-0.036-0.125-0.107t-0.125-0.098-0.134-0.080-0.152-0.036-0.179 0.018l-0.054 0.018q-0.054 0.018-0.098 0.045t-0.098 0.054-0.071 0.054 0 0.045q-0.375-0.304-0.643-0.393-0.089-0.018-0.196-0.098t-0.188-0.125-0.179-0.027-0.205 0.125q-0.089 0.089-0.107 0.268t-0.036 0.232q-0.125-0.089 0-0.313t0.036-0.33q-0.054-0.107-0.188-0.080t-0.214 0.080-0.205 0.152-0.161 0.116-0.152 0.098-0.152 0.134q-0.054 0.071-0.107 0.214t-0.089 0.196q-0.036-0.071-0.205-0.116t-0.17-0.098q0.036 0.179 0.071 0.625t0.089 0.679q0.125 0.554-0.214 0.857-0.482 0.446-0.518 0.714-0.071 0.393 0.214 0.464 0 0.125-0.143 0.366t-0.125 0.384q0 0.107 0.036 0.286z" fill="#000000" />
</g>
<g transform="translate(229 0)">
	<path d="M13.25 28.089l-11.643-11.625q-0.661-0.661-0.661-1.616t0.661-1.616l11.643-11.625q0.661-0.661 1.616-0.661t1.616 0.661l1.339 1.339q0.661 0.661 0.661 1.616t-0.661 1.616l-8.679 8.679 8.679 8.661q0.661 0.679 0.661 1.625t-0.661 1.607l-1.339 1.339q-0.661 0.661-1.616 0.661t-1.616-0.661z" fill="#000000" />
</g>
<g transform="translate(266 0)">
	<path d="M19.625 14.857q0 0.929-0.661 1.625l-11.643 11.625q-0.661 0.661-1.607 0.661t-1.607-0.661l-1.357-1.339q-0.661-0.696-0.661-1.625 0-0.946 0.661-1.607l8.679-8.679-8.679-8.661q-0.661-0.696-0.661-1.625 0-0.946 0.661-1.607l1.357-1.339q0.643-0.679 1.607-0.679t1.607 0.679l11.643 11.625q0.661 0.661 0.661 1.607z" fill="#000000" />
</g>
<g transform="translate(303 0)">
	<path d="M28.768 21.714q0 0.946-0.661 1.607l-1.339 1.339q-0.679 0.679-1.625 0.679-0.964 0-1.607-0.679l-8.679-8.661-8.679 8.661q-0.643 0.679-1.607 0.679t-1.607-0.679l-1.339-1.339q-0.679-0.643-0.679-1.607 0-0.946 0.679-1.625l11.625-11.625q0.661-0.661 1.607-0.661 0.929 0 1.625 0.661l11.607 11.625q0.679 0.679 0.679 1.625z" fill="#000000" />
</g>
<g transform="translate(349 0)">
	<path d="M28.768 12.571q0 0.946-0.661 1.607l-11.625 11.625q-0.679 0.679-1.625 0.679-0.964 0-1.607-0.679l-11.625-11.625q-0.679-0.643-0.679-1.607 0-0.946 0.679-1.625l1.321-1.339q0.696-0.661 1.625-0.661 0.946 0 1.607 0.661l8.679 8.679 8.679-8.679q0.661-0.661 1.607-0.661 0.929 0 1.625 0.661l1.339 1.339q0.661 0.696 0.661 1.625z" fill="#000000" />
</g>
<g transform="translate(395 0)">
	<path d="M18.286 12.571q0 0.464-0.339 0.804l-8 8q-0.339 0.339-0.804 0.339t-0.804-0.339l-8-8q-0.339-0.339-0.339-0.804t0.339-0.804 0.804-0.339h16q0.464 0 0.804 0.339t0.339 0.804z" fill="#000000" />
</g>
<g transform="translate(429 0)">
	<path d="M18.286 21.714q0 0.464-0.339 0.804t-0.804 0.339h-16q-0.464 0-0.804-0.339t-0.339-0.804 0.339-0.804l8-8q0.339-0.339 0.804-0.339t0.804 0.339l8 8q0.339 0.339 0.339 0.804z" fill="#000000" />
</g>
<g transform="translate(463 0)">
	<path d="M11.429 8v16q0 0.464-0.339 0.804t-0.804 0.339-0.804-0.339l-8-8q-0.339-0.339-0.339-0.804t0.339-0.804l8-8q0.339-0.339 0.804-0.339t0.804 0.339 0.339 0.804z" fill="#000000" />
</g>
<g transform="translate(490 0)">
	<path d="M10.286 16q0 0.464-0.339 0.804l-8 8q-0.339 0.339-0.804 0.339t-0.804-0.339-0.339-0.804v-16q0-0.464 0.339-0.804t0.804-0.339 0.804 0.339l8 8q0.339 0.339 0.339 0.804z" fill="#000000" />
</g>
<g transform="translate(517 0)">
	<path d="M14.857 19.429v-2.286q0-0.25-0.161-0.411t-0.411-0.161h-3.429v-3.429q0-0.25-0.161-0.411t-0.411-0.161h-2.286q-0.25 0-0.411 0.161t-0.161 0.411v3.429h-3.429q-0.25 0-0.411 0.161t-0.161 0.411v2.286q0 0.25 0.161 0.411t0.411 0.161h3.429v3.429q0 0.25 0.161 0.411t0.411 0.161h2.286q0.25 0 0.411-0.161t0.161-0.411v-3.429h3.429q0.25 0 0.411-0.161t0.161-0.411zM25.143 20.571q0-0.946-0.67-1.616t-1.616-0.67-1.616 0.67-0.67 1.616 0.67 1.616 1.616 0.67 1.616-0.67 0.67-1.616zM29.714 16q0-0.946-0.67-1.616t-1.616-0.67-1.616 0.67-0.67 1.616 0.67 1.616 1.616 0.67 1.616-0.67 0.67-1.616zM34.286 18.286q0 3.786-2.679 6.464t-6.464 2.679q-3.429 0-6.036-2.286h-3.929q-2.607 2.286-6.036 2.286-3.786 0-6.464-2.679t-2.679-6.464 2.679-6.464 6.464-2.679h16q3.786 0 6.464 2.679t2.679 6.464z" fill="#000000" />
</g>
<g transform="translate(567 0)">
	<path d="M19.463 21.96c-0.691-0.11-0.707-2.010-0.707-2.010s2.030-2.010 2.473-4.713c1.19 0 1.926-2.873 0.735-3.884 0.050-1.064 1.53-8.354-5.964-8.354-7.494 0-6.014 7.29-5.965 8.354-1.19 1.011-0.455 3.884 0.735 3.884 0.442 2.703 2.473 4.713 2.473 4.713s-0.016 1.9-0.707 2.010c-2.226 0.354-10.537 4.020-10.537 8.040h28c0-4.020-8.311-7.685-10.537-8.040z" fill="#000000" />
</g>
<g transform="translate(615 0)">
	<path d="M26.856 16c0-1.677 1.032-3 2.584-3.909-0.282-0.934-0.65-1.832-1.106-2.675-1.744 0.456-3.154-0.227-4.338-1.411-1.187-1.186-1.55-2.597-1.094-4.338-0.843-0.456-1.738-0.829-2.675-1.107-0.909 1.554-2.552 2.586-4.227 2.586-1.675 0-3.317-1.032-4.227-2.586-0.938 0.278-1.832 0.651-2.675 1.106 0.454 1.742 0.093 3.154-1.093 4.339-1.186 1.184-2.597 1.867-4.338 1.413-0.456 0.842-0.827 1.739-1.107 2.674 1.554 0.909 2.586 2.232 2.586 3.909 0 1.675-1.032 3.318-2.586 4.229 0.28 0.936 0.651 1.832 1.107 2.675 1.742-0.456 3.152-0.093 4.338 1.093 1.186 1.186 1.547 2.595 1.093 4.338 0.843 0.456 1.739 0.829 2.675 1.107 0.91-1.555 2.552-2.586 4.227-2.586 1.675 0 3.32 1.032 4.229 2.586 0.938-0.28 1.832-0.651 2.675-1.107-0.456-1.742-0.094-3.152 1.094-4.338 1.184-1.184 2.594-1.867 4.338-1.413 0.456-0.843 0.826-1.739 1.106-2.675-1.554-0.91-2.586-2.234-2.586-3.909zM16 21.845c-3.227 0-5.843-2.618-5.843-5.845s2.616-5.845 5.843-5.845c3.229 0 5.845 2.618 5.845 5.845s-2.616 5.845-5.845 5.845z" fill="#000000" />
</g>
<g transform="translate(663 0)">
	<path d="M16 0c-8.836 0-16 7.164-16 16s7.164 16 16 16 16-7.164 16-16-7.164-16-16-16zM16 4c5.207 0 9.605 3.354 11.266 8h-22.532c1.661-4.646 6.059-8 11.266-8zM16 18c-1.105 0-2-0.895-2-2s0.895-2 2-2 2 0.895 2 2-0.895 2-2 2zM4 16c5.465 0 9.891 5.266 9.984 11.797-5.656-0.969-9.984-5.871-9.984-11.797zM18.016 27.797c0.093-6.531 4.519-11.797 9.984-11.797 0 5.926-4.328 10.828-9.984 11.797z" fill="#000000" />
</g>
</svg>
